# Exported from Wings 3D 1.2
mtllib cube.mtl
o cube1
#8 vertices, 12 faces
v -0.50000000 -0.50000000 0.50000000
v -0.50000000 0.50000000 0.50000000
v 0.50000000 0.50000000 0.50000000
v 0.50000000 -0.50000000 0.50000000
v -0.50000000 -0.50000000 -0.50000000
v -0.50000000 0.50000000 -0.50000000
v 0.50000000 0.50000000 -0.50000000
v 0.50000000 -0.50000000 -0.50000000
vt 0.0000000e+0 1.1102230e-16
vt 0.0000000e+0 2.2204460e-16
vt 0.0000000e+0 1.00000000
vt 2.2204460e-16 2.2204460e-16
vt 2.2204460e-16 4.4408921e-16
vt 2.2204460e-16 1.00000000
vt 4.4408921e-16 0.0000000e+0
vt 4.4408921e-16 2.2204460e-16
vt 4.4408921e-16 1.00000000
vt 1.00000000 0.0000000e+0
vt 1.00000000 1.1102230e-16
vt 1.00000000 2.2204460e-16
vt 1.00000000 4.4408921e-16
vt 1.00000000 1.00000000
vn 0.0000000e+0 -1.00000000 0.0000000e+0
vn 0.0000000e+0 0.0000000e+0 1.00000000
vn -1.00000000 0.0000000e+0 0.0000000e+0
vn 0.0000000e+0 1.00000000 0.0000000e+0
vn 0.0000000e+0 0.0000000e+0 1.00000000
vn 0.0000000e+0 1.00000000 0.0000000e+0
vn 0.0000000e+0 0.0000000e+0 1.00000000
vn -1.00000000 0.0000000e+0 0.0000000e+0
vn -1.00000000 0.0000000e+0 0.0000000e+0
vn 1.00000000 0.0000000e+0 0.0000000e+0
vn 0.0000000e+0 1.00000000 0.0000000e+0
vn 0.0000000e+0 0.0000000e+0 1.00000000
vn 0.0000000e+0 -1.00000000 0.0000000e+0
vn 1.00000000 0.0000000e+0 0.0000000e+0
vn 0.0000000e+0 0.0000000e+0 1.00000000
vn 0.0000000e+0 -1.00000000 0.0000000e+0
vn 0.0000000e+0 0.0000000e+0 1.00000000
vn 1.00000000 0.0000000e+0 0.0000000e+0
vn 0.0000000e+0 -1.00000000 0.0000000e+0
vn 0.0000000e+0 0.0000000e+0 -1.00000000
vn 0.0000000e+0 -1.00000000 0.0000000e+0
vn 0.0000000e+0 0.0000000e+0 -1.00000000
vn -1.00000000 0.0000000e+0 0.0000000e+0
vn -1.00000000 0.0000000e+0 0.0000000e+0
vn 0.0000000e+0 1.00000000 0.0000000e+0
vn 0.0000000e+0 0.0000000e+0 -1.00000000
vn -1.00000000 0.0000000e+0 0.0000000e+0
vn 0.0000000e+0 1.00000000 0.0000000e+0
vn 1.00000000 0.0000000e+0 0.0000000e+0
vn 0.0000000e+0 0.0000000e+0 -1.00000000
vn 0.0000000e+0 1.00000000 0.0000000e+0
vn 0.0000000e+0 0.0000000e+0 -1.00000000
vn 1.00000000 0.0000000e+0 0.0000000e+0
vn 0.0000000e+0 0.0000000e+0 -1.00000000
vn 0.0000000e+0 -1.00000000 0.0000000e+0
vn 1.00000000 0.0000000e+0 0.0000000e+0
g cube1_cube1_auv
usemtl cube1_auv
s 1
f 1/8/1 5/9/19 4/12/13
f 3/5/11 7/6/31 2/12/6
f 4/11/18 8/2/36 7/3/33
f 6/9/26 7/14/32 5/7/22
s 2
f 2/14/7 4/4/17 3/6/12
f 2/3/8 5/11/23 1/1/3
f 2/12/4 7/6/28 6/14/25
f 5/9/21 8/14/35 4/12/16
s 3
f 1/13/2 4/4/15 2/14/5
f 2/3/9 6/14/27 5/11/24
f 4/11/14 7/3/29 3/14/10
f 7/14/30 8/10/34 5/7/20
