# Exported from Wings 3D 1.2
mtllib ship.mtl
o cube1
#48 vertices, 92 faces
v 0.46604296 -4.6098739e-2 0.14070385
v 0.46604296 4.5631895e-2 0.14070385
v 0.28477197 -9.3266190e-2 0.61334395
v 0.28477197 4.5631895e-2 0.61334395
v 5.3436673e-2 -4.9075029e-2 -0.51874031
v 5.3436673e-2 -0.10214269 -0.51874031
v 1.8055049e-16 -4.9075029e-2 -0.54243393
v 1.8055049e-16 -0.11873436 -0.54243393
v 4.6464257e-17 0.11653721 0.55246322
v 4.6464257e-17 -0.16403757 0.55246322
v 9.6890236e-17 0.16403757 0.14070385
v 9.6890236e-17 -0.16403757 0.14070385
v 0.64756828 -3.8727536e-2 0.43975538
v 0.64756828 7.1441743e-2 0.43975538
v 0.49663244 7.1441743e-2 0.94584965
v 0.49663244 -3.8727536e-2 0.94584965
v 4.0833684e-2 -0.10214269 -0.53285566
v 4.0833684e-2 -4.9075029e-2 -0.53285566
v 0.16961230 0.11653721 0.58290359
v 0.16961230 -0.14744589 0.58290359
v 0.16961230 0.16403757 0.14070385
v 0.16961230 -0.14744589 0.14070385
v 9.1308654e-2 4.5778787e-2 -0.27071349
v 9.1308654e-2 -0.10009243 -0.27071349
v 1.4727433e-16 4.5778787e-2 -0.27071349
v 1.4727433e-16 -0.11668411 -0.27071349
v 0.18261731 -6.9341139e-2 -0.27071349
v 0.18261731 -1.7215671e-3 -0.27071349
v -0.46604296 -4.6098739e-2 0.14070385
v -0.46604296 4.5631895e-2 0.14070385
v -0.28477197 -9.3266190e-2 0.61334395
v -0.28477197 4.5631895e-2 0.61334395
v -5.3436673e-2 -4.9075029e-2 -0.51874031
v -5.3436673e-2 -0.10214269 -0.51874031
v -0.64756828 -3.8727536e-2 0.43975538
v -0.64756828 7.1441743e-2 0.43975538
v -0.49663244 7.1441743e-2 0.94584965
v -0.49663244 -3.8727536e-2 0.94584965
v -4.0833684e-2 -0.10214269 -0.53285566
v -4.0833684e-2 -4.9075029e-2 -0.53285566
v -0.16961230 0.11653721 0.58290359
v -0.16961230 -0.14744589 0.58290359
v -0.16961230 0.16403757 0.14070385
v -0.16961230 -0.14744589 0.14070385
v -9.1308654e-2 4.5778787e-2 -0.27071349
v -9.1308654e-2 -0.10009243 -0.27071349
v -0.18261731 -6.9341139e-2 -0.27071349
v -0.18261731 -1.7215671e-3 -0.27071349
vt 0.0000000e+0 0.69053970
vt 4.2285593e-2 0.71525416
vt 0.11847455 0.48783383
vt 0.16076015 0.51254829
vt 0.16331352 0.33807909
vt 0.17536475 0.59545214
vt 0.18715376 0.64617830
vt 0.21512694 0.12420912
vt 0.23028866 0.37309998
vt 0.27933871 3.3287708e-2
vt 0.29111566 1.8231410e-2
vt 0.29780728 0.0000000e+0
vt 0.30306274 0.16395866
vt 0.32256180 5.8152293e-2
vt 0.33503069 5.1982011e-2
vt 0.34659842 0.15855392
vt 0.34866807 4.3914835e-2
vt 0.35966131 0.56514644
vt 0.36786859 0.34315696
vt 0.38304782 0.66577476
vt 0.38362189 0.14708561
vt 0.40944282 0.52981351
vt 0.43912922 0.32433135
vt 0.44897715 0.70072227
vt 0.48119448 0.50585981
vt 0.52771590 0.47388085
vt 0.52771590 0.68855148
vt 0.53171542 0.29271280
vt 0.54359004 0.11090107
vt 0.54696463 8.9466723e-4
vt 0.56615771 0.0000000e+0
vt 0.58393029 6.3125387e-4
vt 0.58452235 0.11195282
vt 0.60240334 0.48892951
vt 0.60614015 0.29553098
vt 0.62473227 0.11194349
vt 0.66991430 0.50491521
vt 0.75162596 0.29695078
vt 0.77873865 0.65209135
vt 0.84024960 0.13148316
vt 0.84024960 0.42828199
vt 0.90677601 0.35344281
vt 0.92024753 0.0000000e+0
vt 1.00000000 0.20728785
vn 0.62859449 -0.71523972 -0.30545230
vn 0.59902783 0.72378279 -0.34249691
vn -0.17629092 -0.75512933 0.63142792
vn -0.29009660 0.73118062 0.61742924
vn 0.76765327 0.30765683 -0.56218833
vn 0.76554130 -0.41706350 -0.48990260
vn -4.3185093e-18 0.58584147 -0.81042567
vn 2.0070644e-17 -0.68788097 -0.72582351
vn -2.3463113e-17 0.67205458 0.74050161
vn -1.9828865e-17 -0.71101641 0.70317542
vn 2.4365004e-17 0.99659696 -8.2428758e-2
vn -3.5025123e-18 -0.99809517 -6.1693117e-2
vn 0.87371643 -0.47456448 -0.10680896
vn 0.85906289 0.49502137 -0.13024899
vn 2.5259282e-2 0.78005441 0.62520163
vn 0.19363679 -0.75105370 0.63120768
vn 0.46685034 -0.66233383 -0.58597326
vn 0.43933667 0.53877727 -0.71882010
vn 1.8637950e-2 0.65266085 0.75742091
vn 1.1600201e-2 -0.69589117 0.71805356
vn 0.21499120 0.97146430 -0.10017937
vn 0.21108971 -0.97452954 -7.5718562e-2
vn 0.22170706 0.91432784 -0.33889612
vn 0.22537855 -0.97060991 -8.4385455e-2
vn 9.4540281e-18 0.95212268 -0.30571620
vn 7.0649495e-18 -0.99856757 -5.3505201e-2
vn 0.72138833 -0.57908891 -0.37980904
vn 0.72268963 0.47984194 -0.49746499
vn -0.62859449 -0.71523972 -0.30545230
vn -0.59902783 0.72378279 -0.34249691
vn 0.17629092 -0.75512933 0.63142792
vn 0.29009660 0.73118062 0.61742924
vn -0.76765327 0.30765683 -0.56218833
vn -0.76554130 -0.41706350 -0.48990260
vn -0.87371643 -0.47456448 -0.10680896
vn -0.85906289 0.49502137 -0.13024899
vn -2.5259282e-2 0.78005441 0.62520163
vn -0.19363679 -0.75105370 0.63120768
vn -0.46685034 -0.66233383 -0.58597326
vn -0.43933667 0.53877727 -0.71882010
vn -1.8637950e-2 0.65266085 0.75742091
vn -1.1600201e-2 -0.69589117 0.71805356
vn -0.21499120 0.97146430 -0.10017937
vn -0.21108971 -0.97452954 -7.5718562e-2
vn -0.22170706 0.91432784 -0.33889612
vn -0.22537855 -0.97060991 -8.4385455e-2
vn -0.72138833 -0.57908891 -0.37980904
vn -0.72268963 0.47984194 -0.49746499
g cube1_cube1_auv2
usemtl cube1_auv2
s 1
f 1/5/1 14/4/14 13/3/13
f 1/38/1 16/39/16 3/37/3
f 1/5/1 28/13/28 2/9/2
f 2/9/2 14/4/14 1/5/1
f 2/9/2 21/19/21 4/18/4
f 2/9/2 28/13/28 21/19/21
f 3/20/3 16/7/16 4/18/4
f 3/37/3 20/34/20 1/38/1
f 4/44/4 14/40/14 2/43/2
f 4/44/4 15/42/15 14/40/14
f 4/18/4 16/7/16 15/6/15
f 4/18/4 20/24/20 3/20/3
f 4/18/4 21/19/21 19/22/19
f 5/14/5 28/13/28 6/10/6
f 6/10/6 18/15/18 5/14/5
f 6/32/6 24/33/24 17/31/17
f 6/32/6 27/36/27 24/33/24
f 6/10/6 28/13/28 27/8/27
f 7/17/7 18/15/18 8/12/8
f 7/17/7 25/21/25 18/15/18
f 7/17/7 40/15/40 25/21/25
f 8/12/8 18/15/18 17/11/17
f 8/12/8 40/15/40 7/17/7
f 8/30/8 46/33/46 39/31/39
f 9/25/9 20/24/20 19/22/19
f 9/25/9 21/19/21 11/23/11
f 9/25/9 42/24/42 10/27/10
f 9/25/9 43/19/43 41/22/41
f 10/27/10 20/24/20 9/25/9
f 10/26/10 42/34/42 12/28/12
f 11/23/11 43/19/43 9/25/9
f 12/28/12 20/34/20 10/26/10
f 12/28/12 22/35/22 20/34/20
f 12/28/12 24/33/24 22/35/22
f 12/28/12 26/29/26 24/33/24
f 12/28/12 46/33/46 26/29/26
f 13/41/13 16/39/16 1/38/1
f 14/4/14 16/1/16 13/3/13
f 15/2/15 16/1/16 14/4/14
f 17/11/17 18/15/18 6/10/6
f 17/31/17 24/33/24 8/30/8
f 18/15/18 25/21/25 23/16/23
f 18/15/18 28/13/28 5/14/5
f 19/22/19 20/24/20 4/18/4
f 19/22/19 21/19/21 9/25/9
f 20/34/20 22/35/22 1/38/1
f 21/19/21 25/21/25 11/23/11
f 21/19/21 28/13/28 23/16/23
f 22/35/22 24/33/24 1/38/1
f 23/16/23 25/21/25 21/19/21
f 23/16/23 28/13/28 18/15/18
f 24/33/24 26/29/26 8/30/8
f 24/33/24 27/36/27 1/38/1
f 25/21/25 43/19/43 11/23/11
f 25/21/25 45/16/45 43/19/43
f 26/29/26 46/33/46 8/30/8
f 27/8/27 28/13/28 1/5/1
f 29/5/29 36/4/36 30/9/30
f 29/38/29 38/39/38 35/41/35
f 29/38/29 42/34/42 31/37/31
f 29/38/29 44/35/44 42/34/42
f 29/38/29 46/33/46 44/35/44
f 29/38/29 47/36/47 46/33/46
f 29/5/29 48/13/48 47/8/47
f 30/43/30 36/40/36 32/44/32
f 30/9/30 48/13/48 29/5/29
f 31/37/31 38/39/38 29/38/29
f 31/20/31 42/24/42 32/18/32
f 32/18/32 38/7/38 31/20/31
f 32/18/32 42/24/42 41/22/41
f 32/18/32 43/19/43 30/9/30
f 33/14/33 40/15/40 34/10/34
f 33/14/33 48/13/48 40/15/40
f 34/10/34 40/15/40 39/11/39
f 34/10/34 48/13/48 33/14/33
f 35/3/35 36/4/36 29/5/29
f 35/3/35 38/1/38 36/4/36
f 36/40/36 37/42/37 32/44/32
f 36/4/36 38/1/38 37/2/37
f 37/6/37 38/7/38 32/18/32
f 39/11/39 40/15/40 8/12/8
f 39/31/39 46/33/46 34/32/34
f 40/15/40 45/16/45 25/21/25
f 40/15/40 48/13/48 45/16/45
f 41/22/41 42/24/42 9/25/9
f 41/22/41 43/19/43 32/18/32
f 42/34/42 44/35/44 12/28/12
f 43/19/43 48/13/48 30/9/30
f 44/35/44 46/33/46 12/28/12
f 45/16/45 48/13/48 43/19/43
f 46/33/46 47/36/47 34/32/34
f 47/8/47 48/13/48 34/10/34
